<svg width="32" height="32" viewBox="0 0 32 32" fill="none" xmlns="http://www.w3.org/2000/svg">
<path d="M31.3851 14.0169L23.0096 10.9167L19.882 0.666353C19.7615 0.271059 19.3954 0 18.9823 0C18.5691 0 18.203 0.271059 18.0825 0.666353L14.9559 10.9167L6.57943 14.0169C6.20955 14.1544 5.96484 14.5054 5.96484 14.8998C5.96484 15.2932 6.20955 15.6461 6.57943 15.7826L14.9512 18.8819L18.0797 29.4447C18.1983 29.8438 18.5653 30.1176 18.9823 30.1176C19.3983 30.1176 19.7663 29.8438 19.8848 29.4438L23.0133 18.8809L31.386 15.7816C31.754 15.6461 31.9997 15.2941 31.9997 14.8998C31.9997 14.5064 31.754 14.1544 31.3851 14.0169Z" fill="#FFAC33"/>
<path d="M12.5619 24.3708L10.384 23.5652L9.53694 20.4593C9.42588 20.0489 9.05412 19.7647 8.62965 19.7647C8.20518 19.7647 7.83341 20.0489 7.72141 20.4584L6.87435 23.5642L4.69741 24.3699C4.32753 24.5064 4.08282 24.8593 4.08282 25.2527C4.08282 25.6461 4.32753 25.9991 4.69741 26.1355L6.86306 26.9384L7.71671 30.3473C7.82212 30.7652 8.19765 31.0588 8.62965 31.0588C9.06165 31.0588 9.43718 30.7652 9.54259 30.3464L10.3962 26.9374L12.5619 26.1346C12.9318 25.9991 13.1765 25.6461 13.1765 25.2527C13.1765 24.8593 12.9318 24.5063 12.5619 24.3708ZM8.47906 3.98212L6.25412 3.15859L5.42965 0.932703C5.29318 0.562821 4.94118 0.318115 4.54682 0.318115C4.15341 0.318115 3.80141 0.562821 3.664 0.932703L2.84047 3.15859L0.614588 3.98212C0.244706 4.11953 0 4.47153 0 4.86494C0 5.25835 0.244706 5.61129 0.614588 5.74776L2.84047 6.57129L3.664 8.79717C3.80141 9.16706 4.15341 9.41176 4.54682 9.41176C4.94024 9.41176 5.29224 9.16706 5.42965 8.79717L6.25318 6.57129L8.47906 5.74776C8.84894 5.61035 9.09365 5.25835 9.09365 4.86494C9.09365 4.47153 8.84894 4.11953 8.47906 3.98212Z" fill="#FFCC4D"/>
</svg>
