<svg width="112" height="68" viewBox="0 0 112 68" fill="none" xmlns="http://www.w3.org/2000/svg">
<g filter="url(#filter0_d_574_10574)">
<path d="M76.1959 41H77.1824L76.5991 40.2044L67.9453 28.3991L76.4226 16.7949L77.0034 16H76.0189H70.7479H70.4785L70.3303 16.225L65.0413 24.256C65.0411 24.2564 65.0408 24.2568 65.0405 24.2573C64.8647 24.5209 64.6708 24.8376 64.4588 25.2061C64.3005 24.9169 64.133 24.628 63.9563 24.3394L63.9563 24.3394L63.9531 24.3342L58.8592 16.2338L58.7121 16H58.4359H52.7126H51.7428L52.3053 16.79L60.5875 28.4222L51.5683 40.1959L50.9523 41H51.9652H57.6099H57.8752L58.0239 40.7803L63.9832 31.9769L63.9976 31.9557L64.0098 31.933C64.0707 31.8195 64.128 31.7121 64.1815 31.611C64.2512 31.7417 64.3195 31.86 64.3865 31.9651L64.3864 31.9652L64.3903 31.9712L70.1727 40.7745L70.3208 41H70.5906H76.1959ZM95.667 41H96.167V40.5V37.136V36.636H95.667H85.2317V16.5V16H84.7317H80.0508H79.5508V16.5V40.5V41H80.0508H95.667Z" fill="#FDFDFD" stroke="#FDFDFD"/>
<path d="M51.6308 23.9741L26.6033 9.58811L26.6584 38.4556L51.6308 23.9741ZM15.667 32.5432L40.667 46.9769V18.1094L15.667 32.5432ZM15.6718 26.5428L29.1356 26.5171L29.1261 21.5171L15.6622 21.5428L15.6718 26.5428ZM51.6309 30.0432H38.167V35.0432H51.6309V30.0432Z" fill="#FDFDFD"/>
</g>
<defs>
<filter id="filter0_d_574_10574" x="0.662231" y="0.587891" width="111.005" height="67.3892" filterUnits="userSpaceOnUse" color-interpolation-filters="sRGB">
<feFlood flood-opacity="0" result="BackgroundImageFix"/>
<feColorMatrix in="SourceAlpha" type="matrix" values="0 0 0 0 0 0 0 0 0 0 0 0 0 0 0 0 0 0 127 0" result="hardAlpha"/>
<feMorphology radius="5" operator="dilate" in="SourceAlpha" result="effect1_dropShadow_574_10574"/>
<feOffset dy="6"/>
<feGaussianBlur stdDeviation="5"/>
<feComposite in2="hardAlpha" operator="out"/>
<feColorMatrix type="matrix" values="0 0 0 0 0.2 0 0 0 0 0.2 0 0 0 0 0.2 0 0 0 0.1 0"/>
<feBlend mode="normal" in2="BackgroundImageFix" result="effect1_dropShadow_574_10574"/>
<feBlend mode="normal" in="SourceGraphic" in2="effect1_dropShadow_574_10574" result="shape"/>
</filter>
</defs>
</svg>
