<svg width="24" height="24" viewBox="0 0 24 24" fill="none" xmlns="http://www.w3.org/2000/svg">
<path d="M17.7703 19.6664C19.9641 17.9508 21.375 15.2789 21.375 12.2789C21.375 7.10157 17.1914 2.91329 12.0141 2.90626C6.82969 2.89923 2.625 7.09688 2.625 12.2789C2.625 15.2133 3.97266 17.8313 6.08438 19.5492C6.16641 19.6149 6.28594 19.6008 6.35156 19.5188L7.275 18.3352C7.33828 18.2555 7.32422 18.1406 7.24688 18.075C7.05703 17.9203 6.87422 17.7539 6.69844 17.5781C6.01317 16.8952 5.46712 16.0857 5.09062 15.1945C4.69687 14.2734 4.5 13.2914 4.5 12.2789C4.5 11.2664 4.69688 10.2844 5.08828 9.36095C5.46563 8.46798 6.00703 7.66642 6.69609 6.97735C7.38516 6.28829 8.18672 5.74688 9.07969 5.36954C10.0055 4.97813 10.9875 4.78126 12 4.78126C13.0125 4.78126 13.9945 4.97813 14.918 5.36954C15.8109 5.74688 16.6125 6.28829 17.3016 6.97735C17.9906 7.66642 18.532 8.46798 18.9094 9.36095C19.3008 10.2844 19.4977 11.2664 19.4977 12.2789C19.4977 13.2914 19.3008 14.2734 18.9094 15.1969C18.5329 16.0881 17.9868 16.8976 17.3016 17.5805C17.0836 17.7984 16.8539 18.0024 16.6148 18.1899L15.6609 16.9688C15.6393 16.9408 15.6103 16.9196 15.5772 16.9074C15.544 16.8953 15.5081 16.8927 15.4736 16.9001C15.4391 16.9074 15.4073 16.9244 15.382 16.949C15.3567 16.9735 15.3388 17.0048 15.3305 17.0391L14.4023 20.8406C14.3742 20.9578 14.4633 21.0727 14.5828 21.0727L18.4969 21.0914C18.6539 21.0914 18.743 20.9109 18.6445 20.7891L17.7703 19.6664Z" fill="#0E1112"/>
</svg>
