<svg width="48" height="48" viewBox="0 0 48 48" fill="none" xmlns="http://www.w3.org/2000/svg">
<path d="M34.9335 47.2H13.6002C4.19216 47.2 1.3335 44.3414 1.3335 34.9334V13.6C1.3335 4.19204 4.19216 1.33337 13.6002 1.33337H16.8002C20.5335 1.33337 21.7068 2.54937 23.2002 4.53337L26.4002 8.80004C27.1042 9.73871 27.2108 9.86671 28.5335 9.86671H34.9335C44.3415 9.86671 47.2002 12.7254 47.2002 22.1334V34.9334C47.2002 44.3414 44.3415 47.2 34.9335 47.2ZM13.6002 4.53337C5.98416 4.53337 4.5335 5.98404 4.5335 13.6V34.9334C4.5335 42.5494 5.98416 44 13.6002 44H34.9335C42.5495 44 44.0002 42.5494 44.0002 34.9334V22.1334C44.0002 14.5174 42.5495 13.0667 34.9335 13.0667H28.5335C25.8028 13.0667 24.9068 12.128 23.8402 10.72L20.6402 6.45337C19.5308 4.98137 19.2108 4.53337 16.8002 4.53337H13.6002Z" fill="#292D32"/>
</svg>
