<svg width="24" height="24" viewBox="0 0 24 24" fill="none" xmlns="http://www.w3.org/2000/svg">
<path d="M12.2164 2L12.7384 1.46142L12.5202 1.25H12.2164V2ZM22 11.4814H22.75V11.1638L22.5219 10.9428L22 11.4814ZM4 2.75H12.2164V1.25H4V2.75ZM2.75 4C2.75 3.30964 3.30964 2.75 4 2.75V1.25C2.48122 1.25 1.25 2.48122 1.25 4H2.75ZM2.75 20V4H1.25V20H2.75ZM4 21.25C3.30964 21.25 2.75 20.6904 2.75 20H1.25C1.25 21.5188 2.48122 22.75 4 22.75V21.25ZM20 21.25H4V22.75H20V21.25ZM21.25 20C21.25 20.6904 20.6904 21.25 20 21.25V22.75C21.5188 22.75 22.75 21.5188 22.75 20H21.25ZM21.25 11.4814V20H22.75V11.4814H21.25ZM22.5219 10.9428L12.7384 1.46142L11.6945 2.53858L21.4781 12.02L22.5219 10.9428Z" fill="#292D32"/>
<path d="M21.1332 12H16.5009C12.5402 12 11 10.5998 11 6.99922V2.78804C11 2.4722 11.2085 2.17742 11.5327 2.06161C11.857 1.93528 12.2276 2.00897 12.4823 2.23006L21.7469 10.6524C21.9901 10.8735 22.0712 11.2209 21.9322 11.5157C21.7933 11.8105 21.4806 12 21.1332 12ZM12.7371 4.6936V6.99922C12.7371 9.71543 13.513 10.4208 16.5009 10.4208H19.037L12.7371 4.6936Z" fill="#292D32"/>
<path d="M8.74713 11.9999C9.15713 11.9999 9.49713 12.3399 9.49713 12.7499V16.9399L10.2171 16.2199C10.5071 15.9299 10.9871 15.9299 11.2771 16.2199C11.5671 16.5099 11.5671 16.9899 11.2771 17.2799L9.27713 19.2799C9.06713 19.4899 8.73713 19.5599 8.45713 19.4399C8.17713 19.3299 7.99713 19.0499 7.99713 18.7499L7.99713 12.7499C7.99713 12.3399 8.33713 11.9999 8.74713 11.9999Z" fill="#292D32"/>
<path d="M6.74713 15.9999C6.93713 15.9999 7.12713 16.0699 7.27713 16.2199L9.27713 18.2199C9.56713 18.5099 9.56713 18.9899 9.27713 19.2799C8.98713 19.5699 8.50713 19.5699 8.21713 19.2799L6.21713 17.2799C5.92713 16.9899 5.92713 16.5099 6.21713 16.2199C6.36713 16.0699 6.55713 15.9999 6.74713 15.9999Z" fill="#292D32"/>
</svg>
