<svg width="48" height="39" viewBox="0 0 48 39" fill="none" xmlns="http://www.w3.org/2000/svg">
<path d="M40.32 16.995C40.6275 16.1925 40.8 15.315 40.8 14.4C40.8 10.425 37.575 7.20002 33.6 7.20002C32.1225 7.20002 30.7425 7.65002 29.6025 8.41502C27.525 4.81502 23.6475 2.40002 19.2 2.40002C12.57 2.40002 7.2 7.77002 7.2 14.4C7.2 14.6025 7.2075 14.805 7.215 15.0075C3.015 16.485 0 20.49 0 25.2C0 31.1625 4.8375 36 10.8 36H38.4C43.7025 36 48 31.7025 48 26.4C48 21.7575 44.7 17.88 40.32 16.995ZM29.505 21.6H24.6V30C24.6 30.66 24.06 31.2 23.4 31.2H19.8C19.14 31.2 18.6 30.66 18.6 30V21.6H13.695C12.6225 21.6 12.09 20.31 12.8475 19.5525L20.7525 11.6475C21.2175 11.1825 21.9825 11.1825 22.4475 11.6475L30.3525 19.5525C31.11 20.31 30.57 21.6 29.505 21.6Z" fill="#908AC7"/>
</svg>
