<svg width="24" height="24" viewBox="0 0 24 24" fill="none" xmlns="http://www.w3.org/2000/svg">
<path d="M8.66747 11.9944C8.66747 10.1546 10.1594 8.66267 12.0004 8.66267C13.8414 8.66267 15.3341 10.1546 15.3341 11.9944C15.3341 13.8343 13.8414 15.3261 12.0004 15.3261C10.1594 15.3261 8.66747 13.8343 8.66747 11.9944ZM6.86531 11.9944C6.86531 14.8288 9.16429 17.1264 12.0004 17.1264C14.8365 17.1264 17.1355 14.8288 17.1355 11.9944C17.1355 9.15999 14.8365 6.8624 12.0004 6.8624C9.16429 6.8624 6.86531 9.15999 6.86531 11.9944ZM16.1387 6.65891C16.1386 6.89612 16.2089 7.12802 16.3407 7.3253C16.4725 7.52258 16.6598 7.67638 16.8791 7.76724C17.0983 7.8581 17.3396 7.88195 17.5724 7.83577C17.8052 7.78959 18.0191 7.67545 18.187 7.50778C18.3549 7.34012 18.4693 7.12647 18.5157 6.89384C18.5621 6.66121 18.5384 6.42006 18.4477 6.20087C18.3569 5.98169 18.2032 5.79432 18.0059 5.66245C17.8086 5.53059 17.5766 5.46016 17.3393 5.46006H17.3388C17.0206 5.46021 16.7156 5.58655 16.4905 5.81133C16.2655 6.03611 16.139 6.34096 16.1387 6.65891ZM7.96024 20.1296C6.98524 20.0852 6.4553 19.9229 6.10312 19.7858C5.63623 19.6041 5.30309 19.3878 4.95284 19.0382C4.60258 18.6887 4.38578 18.356 4.20481 17.8894C4.06752 17.5376 3.90512 17.0078 3.86079 16.0334C3.81231 14.9799 3.80263 14.6635 3.80263 11.9945C3.80263 9.3255 3.81311 9.00992 3.86079 7.95555C3.9052 6.98113 4.0688 6.45239 4.20481 6.09954C4.38658 5.63293 4.60306 5.29999 4.95284 4.94995C5.30261 4.5999 5.63543 4.38323 6.10312 4.20237C6.45514 4.06516 6.98524 3.90285 7.96024 3.85856C9.01436 3.81011 9.33101 3.80043 12.0004 3.80043C14.6698 3.80043 14.9868 3.81091 16.0418 3.85856C17.0168 3.90293 17.5458 4.06644 17.8989 4.20237C18.3658 4.38323 18.6989 4.60038 19.0492 4.94995C19.3994 5.29951 19.6154 5.63293 19.7972 6.09954C19.9345 6.45135 20.0969 6.98113 20.1412 7.95555C20.1897 9.00992 20.1994 9.3255 20.1994 11.9945C20.1994 14.6635 20.1897 14.9791 20.1412 16.0334C20.0968 17.0078 19.9336 17.5375 19.7972 17.8894C19.6154 18.356 19.3989 18.689 19.0492 19.0382C18.6994 19.3875 18.3658 19.6041 17.8989 19.7858C17.5469 19.923 17.0168 20.0853 16.0418 20.1296C14.9876 20.1781 14.671 20.1877 12.0004 20.1877C9.32981 20.1877 9.01404 20.1781 7.96024 20.1296ZM7.87744 2.06053C6.81283 2.10898 6.08536 2.27768 5.45006 2.52475C4.79211 2.77988 4.23513 3.12217 3.67855 3.67754C3.12196 4.23291 2.78035 4.79044 2.52506 5.44799C2.27785 6.08331 2.10904 6.80995 2.06056 7.87391C2.01128 8.93955 2 9.28024 2 11.9944C2 14.7086 2.01128 15.0493 2.06056 16.1149C2.10904 17.1789 2.27785 17.9055 2.52506 18.5408C2.78035 19.198 3.12205 19.7561 3.67855 20.3113C4.23505 20.8664 4.79211 21.2082 5.45006 21.4641C6.08656 21.7111 6.81283 21.8798 7.87744 21.9283C8.94428 21.9767 9.28461 21.9888 12.0004 21.9888C14.7162 21.9888 15.0571 21.9775 16.1234 21.9283C17.188 21.8798 17.915 21.7111 18.5507 21.4641C19.2083 21.2082 19.7657 20.8666 20.3223 20.3113C20.8788 19.7559 21.2197 19.198 21.4757 18.5408C21.723 17.9055 21.8926 17.1789 21.9402 16.1149C21.9887 15.0485 22 14.7086 22 11.9944C22 9.28024 21.9887 8.93955 21.9402 7.87391C21.8918 6.80987 21.723 6.08291 21.4757 5.44799C21.2197 4.79084 20.878 4.23379 20.3223 3.67754C19.7666 3.12129 19.2083 2.77988 18.5515 2.52475C17.915 2.27768 17.188 2.10818 16.1242 2.06053C15.0579 2.01207 14.717 2 12.0012 2C9.28541 2 8.94428 2.01127 7.87744 2.06053Z" fill="url(#paint0_radial_408_8766)"/>
<path d="M8.66747 11.9944C8.66747 10.1546 10.1594 8.66267 12.0004 8.66267C13.8414 8.66267 15.3341 10.1546 15.3341 11.9944C15.3341 13.8343 13.8414 15.3261 12.0004 15.3261C10.1594 15.3261 8.66747 13.8343 8.66747 11.9944ZM6.86531 11.9944C6.86531 14.8288 9.16429 17.1264 12.0004 17.1264C14.8365 17.1264 17.1355 14.8288 17.1355 11.9944C17.1355 9.15999 14.8365 6.8624 12.0004 6.8624C9.16429 6.8624 6.86531 9.15999 6.86531 11.9944ZM16.1387 6.65891C16.1386 6.89612 16.2089 7.12802 16.3407 7.3253C16.4725 7.52258 16.6598 7.67638 16.8791 7.76724C17.0983 7.8581 17.3396 7.88195 17.5724 7.83577C17.8052 7.78959 18.0191 7.67545 18.187 7.50778C18.3549 7.34012 18.4693 7.12647 18.5157 6.89384C18.5621 6.66121 18.5384 6.42006 18.4477 6.20087C18.3569 5.98169 18.2032 5.79432 18.0059 5.66245C17.8086 5.53059 17.5766 5.46016 17.3393 5.46006H17.3388C17.0206 5.46021 16.7156 5.58655 16.4905 5.81133C16.2655 6.03611 16.139 6.34096 16.1387 6.65891ZM7.96024 20.1296C6.98524 20.0852 6.4553 19.9229 6.10312 19.7858C5.63623 19.6041 5.30309 19.3878 4.95284 19.0382C4.60258 18.6887 4.38578 18.356 4.20481 17.8894C4.06752 17.5376 3.90512 17.0078 3.86079 16.0334C3.81231 14.9799 3.80263 14.6635 3.80263 11.9945C3.80263 9.3255 3.81311 9.00992 3.86079 7.95555C3.9052 6.98113 4.0688 6.45239 4.20481 6.09954C4.38658 5.63293 4.60306 5.29999 4.95284 4.94995C5.30261 4.5999 5.63543 4.38323 6.10312 4.20237C6.45514 4.06516 6.98524 3.90285 7.96024 3.85856C9.01436 3.81011 9.33101 3.80043 12.0004 3.80043C14.6698 3.80043 14.9868 3.81091 16.0418 3.85856C17.0168 3.90293 17.5458 4.06644 17.8989 4.20237C18.3658 4.38323 18.6989 4.60038 19.0492 4.94995C19.3994 5.29951 19.6154 5.63293 19.7972 6.09954C19.9345 6.45135 20.0969 6.98113 20.1412 7.95555C20.1897 9.00992 20.1994 9.3255 20.1994 11.9945C20.1994 14.6635 20.1897 14.9791 20.1412 16.0334C20.0968 17.0078 19.9336 17.5375 19.7972 17.8894C19.6154 18.356 19.3989 18.689 19.0492 19.0382C18.6994 19.3875 18.3658 19.6041 17.8989 19.7858C17.5469 19.923 17.0168 20.0853 16.0418 20.1296C14.9876 20.1781 14.671 20.1877 12.0004 20.1877C9.32981 20.1877 9.01404 20.1781 7.96024 20.1296ZM7.87744 2.06053C6.81283 2.10898 6.08536 2.27768 5.45006 2.52475C4.79211 2.77988 4.23513 3.12217 3.67855 3.67754C3.12196 4.23291 2.78035 4.79044 2.52506 5.44799C2.27785 6.08331 2.10904 6.80995 2.06056 7.87391C2.01128 8.93955 2 9.28024 2 11.9944C2 14.7086 2.01128 15.0493 2.06056 16.1149C2.10904 17.1789 2.27785 17.9055 2.52506 18.5408C2.78035 19.198 3.12205 19.7561 3.67855 20.3113C4.23505 20.8664 4.79211 21.2082 5.45006 21.4641C6.08656 21.7111 6.81283 21.8798 7.87744 21.9283C8.94428 21.9767 9.28461 21.9888 12.0004 21.9888C14.7162 21.9888 15.0571 21.9775 16.1234 21.9283C17.188 21.8798 17.915 21.7111 18.5507 21.4641C19.2083 21.2082 19.7657 20.8666 20.3223 20.3113C20.8788 19.7559 21.2197 19.198 21.4757 18.5408C21.723 17.9055 21.8926 17.1789 21.9402 16.1149C21.9887 15.0485 22 14.7086 22 11.9944C22 9.28024 21.9887 8.93955 21.9402 7.87391C21.8918 6.80987 21.723 6.08291 21.4757 5.44799C21.2197 4.79084 20.878 4.23379 20.3223 3.67754C19.7666 3.12129 19.2083 2.77988 18.5515 2.52475C17.915 2.27768 17.188 2.10818 16.1242 2.06053C15.0579 2.01207 14.717 2 12.0012 2C9.28541 2 8.94428 2.01127 7.87744 2.06053Z" fill="url(#paint1_radial_408_8766)"/>
<defs>
<radialGradient id="paint0_radial_408_8766" cx="0" cy="0" r="1" gradientUnits="userSpaceOnUse" gradientTransform="translate(4.65723 22.0832) scale(26.1094 26.0937)">
<stop offset="0.09" stop-color="#FA8F21"/>
<stop offset="0.78" stop-color="#D82D7E"/>
</radialGradient>
<radialGradient id="paint1_radial_408_8766" cx="0" cy="0" r="1" gradientUnits="userSpaceOnUse" gradientTransform="translate(14.1296 22.9787) scale(20.5778 20.5654)">
<stop offset="0.64" stop-color="#8C3AAA" stop-opacity="0"/>
<stop offset="1" stop-color="#8C3AAA"/>
</radialGradient>
</defs>
</svg>
