<svg width="24" height="24" viewBox="0 0 24 24" fill="none" xmlns="http://www.w3.org/2000/svg">
<path d="M12.2164 2L12.7384 1.46142L12.5202 1.25H12.2164V2ZM22 11.4814H22.75V11.1638L22.5219 10.9428L22 11.4814ZM4 2.75H12.2164V1.25H4V2.75ZM2.75 4C2.75 3.30964 3.30964 2.75 4 2.75V1.25C2.48122 1.25 1.25 2.48122 1.25 4H2.75ZM2.75 20V4H1.25V20H2.75ZM4 21.25C3.30964 21.25 2.75 20.6904 2.75 20H1.25C1.25 21.5188 2.48122 22.75 4 22.75V21.25ZM20 21.25H4V22.75H20V21.25ZM21.25 20C21.25 20.6904 20.6904 21.25 20 21.25V22.75C21.5188 22.75 22.75 21.5188 22.75 20H21.25ZM21.25 11.4814V20H22.75V11.4814H21.25ZM22.5219 10.9428L12.7384 1.46142L11.6945 2.53858L21.4781 12.02L22.5219 10.9428Z" fill="#292D32"/>
<path d="M21.1332 12H16.5009C12.5402 12 11 10.5998 11 6.99922V2.78804C11 2.4722 11.2085 2.17742 11.5327 2.06161C11.857 1.93528 12.2276 2.00897 12.4823 2.23006L21.7469 10.6524C21.9901 10.8735 22.0712 11.2209 21.9322 11.5157C21.7933 11.8105 21.4806 12 21.1332 12ZM12.7371 4.6936V6.99922C12.7371 9.71543 13.513 10.4208 16.5009 10.4208H19.037L12.7371 4.6936Z" fill="#292D32"/>
<path d="M8.7475 19.4985C8.3375 19.4985 7.9975 19.1585 7.9975 18.7485V14.5585L7.2775 15.2785C6.9875 15.5685 6.5075 15.5685 6.2175 15.2785C5.9275 14.9885 5.9275 14.5085 6.2175 14.2185L8.2175 12.2185C8.4275 12.0085 8.7575 11.9385 9.0375 12.0585C9.3175 12.1685 9.4975 12.4485 9.4975 12.7485V18.7485C9.4975 19.1585 9.1575 19.4985 8.7475 19.4985Z" fill="#292D32"/>
<path d="M10.7475 15.4985C10.5575 15.4985 10.3675 15.4285 10.2175 15.2785L8.2175 13.2785C7.9275 12.9885 7.9275 12.5085 8.2175 12.2185C8.5075 11.9285 8.9875 11.9285 9.2775 12.2185L11.2775 14.2185C11.5675 14.5085 11.5675 14.9885 11.2775 15.2785C11.1275 15.4285 10.9375 15.4985 10.7475 15.4985Z" fill="#292D32"/>
</svg>
