<svg width="40" height="40" viewBox="0 0 40 40" fill="none" xmlns="http://www.w3.org/2000/svg">
<path fill-rule="evenodd" clip-rule="evenodd" d="M29.8333 7C29.3676 6.37902 28.7637 5.875 28.0694 5.52786C27.3751 5.18073 26.6096 5 25.8333 5H7.5C6.17392 5 4.90215 5.52678 3.96447 6.46447C3.02678 7.40215 2.5 8.67392 2.5 10V30C2.5 31.3261 3.02678 32.5979 3.96447 33.5355C4.90215 34.4732 6.17392 35 7.5 35H25.8333C26.6096 35 27.3751 34.8193 28.0694 34.4721C28.7637 34.125 29.3676 33.621 29.8333 33L37.3333 23C37.9824 22.1345 38.3333 21.0819 38.3333 20C38.3333 18.9181 37.9824 17.8655 37.3333 17L29.8333 7Z" fill="#358600"/>
</svg>
