<svg width="24" height="24" viewBox="0 0 24 24" fill="none" xmlns="http://www.w3.org/2000/svg">
<path d="M3.36364 19.0037H6.54545V11.2764L2 7.86731V17.64C2 18.3946 2.61136 19.0037 3.36364 19.0037Z" fill="#4285F4"/>
<path d="M17.4546 19.0037H20.6364C21.391 19.0037 22 18.3923 22 17.64V7.86731L17.4546 11.2764" fill="#34A853"/>
<path d="M17.4546 5.3675V11.2766L22 7.8675V6.04932C22 4.36296 20.075 3.4016 18.7273 4.41296" fill="#FBBC04"/>
<path d="M6.5459 11.2765V5.36743L12.0004 9.45834L17.455 5.36743V11.2765L12.0004 15.3674" fill="#EA4335"/>
<path d="M2 6.04932V7.8675L6.54545 11.2766V5.3675L5.27273 4.41296C3.92273 3.4016 2 4.36296 2 6.04932Z" fill="#C5221F"/>
</svg>
