<svg width="188" height="240" viewBox="0 0 188 240" fill="none" xmlns="http://www.w3.org/2000/svg">
<path d="M187.145 118.624C187.145 115.248 186.447 112.081 185.278 109.201C177.475 80.1678 140.948 82.2886 88.9909 80.8725C80.3042 80.6376 85.273 68.8054 88.3218 42.8322C90.3058 25.9396 80.8627 0 64.9904 0C38.8198 0 63.9955 23.8121 40.8562 82.698C28.4923 114.161 0.855469 96.5369 0.855469 128.141V200.081C0.855469 212.383 1.90276 224.208 16.9023 226.154C31.4422 228.04 28.1723 239.993 49.1472 239.993H154.132C164.826 239.993 173.525 229.953 173.525 217.617C173.525 212.503 171.971 207.846 169.464 204.074C175.398 200.242 179.471 193.007 179.471 184.617C179.471 179.517 177.923 174.859 175.422 171.094C181.374 167.268 185.458 160.027 185.458 151.624C185.458 145.523 183.317 139.993 179.867 135.946C184.271 131.846 187.145 125.644 187.145 118.624Z" fill="#A2C78A"/>
<path d="M117.698 141.007H167.759C174.566 141.007 180.955 136.805 184.434 130.047C185.865 127.262 185.068 123.658 182.648 122C180.233 120.342 177.109 121.275 175.672 124.061C174.025 127.275 170.982 129.262 167.753 129.262H116.494C111.415 129.262 107.284 124.497 107.284 118.638C107.284 112.779 111.415 108.014 116.494 108.014H150.746C153.556 108.014 155.837 105.383 155.837 102.141C155.837 98.8994 153.556 96.2686 150.746 96.2686H116.488C105.794 96.2686 97.0957 106.302 97.0957 118.638C97.0957 125.517 99.8594 131.604 104.107 135.711C100.528 139.772 98.3001 145.409 98.3001 151.638C98.3001 158.537 101.081 164.644 105.352 168.745C101.797 172.799 99.5918 178.416 99.5918 184.631C99.5918 192.148 102.844 198.779 107.79 202.839C104.741 206.792 102.833 211.94 102.833 217.631C102.833 229.967 111.531 240 122.225 240H154.132C160.94 240 167.334 235.805 170.813 229.047C172.25 226.262 171.453 222.658 169.039 221C166.618 219.356 163.494 220.262 162.063 223.047C160.404 226.262 157.362 228.255 154.132 228.255H122.225C117.146 228.255 113.015 223.49 113.015 217.631C113.015 211.772 117.146 207.007 122.225 207.007H160.079C166.886 207.007 173.286 202.805 176.76 196.047C178.197 193.255 177.4 189.651 174.985 188C172.547 186.316 169.434 187.262 168.009 190.047C166.327 193.316 163.36 195.262 160.079 195.262H118.984C113.905 195.262 109.774 190.49 109.774 184.631C109.774 178.772 113.905 174.007 118.984 174.007H166.06C172.867 174.007 179.262 169.812 182.741 163.054C184.178 160.269 183.381 156.665 180.966 155.007C178.54 153.356 175.421 154.269 173.99 157.054C172.309 160.316 169.341 162.262 166.06 162.262H117.698C112.619 162.262 108.488 157.497 108.488 151.638C108.488 145.779 112.613 141.007 117.698 141.007Z" fill="#78AE54"/>
</svg>
