<svg width="24" height="24" viewBox="0 0 24 24" fill="none" xmlns="http://www.w3.org/2000/svg">
<path d="M18.9467 7.00006C18.9467 7.74618 18.328 8.36492 17.5819 8.36492H9.95682L11.2671 9.67518C11.7948 10.2029 11.7948 11.0764 11.2671 11.6042C10.7393 12.1319 9.86583 12.1319 9.33809 11.6042L5.69845 7.96456C5.31629 7.5824 5.18891 6.98186 5.40728 6.47231C5.60746 5.96276 6.11701 5.63519 6.66296 5.63519L17.5819 5.63519C18.328 5.63519 18.9467 6.25393 18.9467 7.00006Z" fill="#292D32"/>
<path d="M11.6675 3.36028C11.6675 3.70605 11.5402 4.05182 11.2672 4.32479L7.62755 7.96442C7.0998 8.49217 6.22629 8.49217 5.69854 7.96442C5.1708 7.43667 5.1708 6.56316 5.69854 6.03541L9.33818 2.39578C9.86592 1.86804 10.7394 1.86804 11.2672 2.39578C11.5402 2.66875 11.6675 3.01452 11.6675 3.36028Z" fill="#292D32"/>
<path d="M5.00006 16.9999C5.00006 16.2538 5.6188 15.6351 6.36492 15.6351H13.99L12.6797 14.3248C12.1519 13.7971 12.1519 12.9236 12.6797 12.3958C13.2074 11.8681 14.0809 11.8681 14.6087 12.3958L18.2483 16.0354C18.6305 16.4176 18.7579 17.0181 18.5395 17.5277C18.3393 18.0372 17.8298 18.3648 17.2838 18.3648H6.36492C5.6188 18.3648 5.00006 17.7461 5.00006 16.9999Z" fill="#292D32"/>
<path d="M12.2792 20.6397C12.2792 20.294 12.4066 19.9482 12.6796 19.6752L16.3192 16.0356C16.847 15.5078 17.7205 15.5078 18.2482 16.0356C18.776 16.5633 18.776 17.4368 18.2482 17.9646L14.6086 21.6042C14.0809 22.132 13.2073 22.132 12.6796 21.6042C12.4066 21.3312 12.2792 20.9855 12.2792 20.6397Z" fill="#292D32"/>
</svg>
