<svg width="48" height="48" viewBox="0 0 48 48" fill="none" xmlns="http://www.w3.org/2000/svg">
<g clip-path="url(#clip0_357_5146)">
<path d="M24.4721 2.18177L25.611 1.00669L25.1349 0.54541H24.4721V2.18177ZM45.8181 22.8685H47.4545V22.1755L46.9568 21.6934L45.8181 22.8685ZM6.54541 3.81814H24.4721V0.54541H6.54541V3.81814ZM3.81814 6.54541C3.81814 5.03917 5.03917 3.81814 6.54541 3.81814V0.54541C3.23171 0.54541 0.54541 3.23171 0.54541 6.54541H3.81814ZM3.81814 41.4545V6.54541H0.54541V41.4545H3.81814ZM6.54541 44.1818C5.03917 44.1818 3.81814 42.9608 3.81814 41.4545H0.54541C0.54541 44.7682 3.23171 47.4545 6.54541 47.4545V44.1818ZM41.4545 44.1818H6.54541V47.4545H41.4545V44.1818ZM44.1818 41.4545C44.1818 42.9608 42.9608 44.1818 41.4545 44.1818V47.4545C44.7682 47.4545 47.4545 44.7682 47.4545 41.4545H44.1818ZM44.1818 22.8685V41.4545H47.4545V22.8685H44.1818ZM46.9568 21.6934L25.611 1.00669L23.3334 3.35686L44.6794 24.0436L46.9568 21.6934Z" fill="#292D32"/>
<path d="M43.9272 23.9999H33.8203C25.1788 23.9999 21.8184 20.9449 21.8184 13.0892V3.90113C21.8184 3.21202 22.2733 2.56887 22.9806 2.31619C23.6882 2.04056 24.4968 2.20134 25.0525 2.68372L45.2661 21.0598C45.7968 21.5422 45.9737 22.3001 45.6704 22.9433C45.3674 23.5865 44.6851 23.9999 43.9272 23.9999ZM25.6084 8.05871V13.0892C25.6084 19.0154 27.3013 20.5544 33.8203 20.5544H39.3536L25.6084 8.05871Z" fill="#292D32"/>
<path d="M16.9037 40.3604C16.0092 40.3604 15.2674 39.6186 15.2674 38.7241V29.5822L13.6965 31.1531C13.0637 31.7859 12.0165 31.7859 11.3837 31.1531C10.751 30.5204 10.751 29.4731 11.3837 28.8404L15.7474 24.4768C16.2055 24.0186 16.9255 23.8659 17.5365 24.1277C18.1474 24.3677 18.5401 24.9786 18.5401 25.6331V38.7241C18.5401 39.6186 17.7983 40.3604 16.9037 40.3604Z" fill="#292D32"/>
<path d="M21.2675 31.6331C20.8529 31.6331 20.4384 31.4804 20.1111 31.1531L15.7475 26.7895C15.1148 26.1567 15.1148 25.1095 15.7475 24.4767C16.3802 23.844 17.4275 23.844 18.0602 24.4767L22.4239 28.8404C23.0566 29.4731 23.0566 30.5204 22.4239 31.1531C22.0966 31.4804 21.682 31.6331 21.2675 31.6331Z" fill="#292D32"/>
</g>
<defs>
<clipPath id="clip0_357_5146">
<rect width="48" height="48" fill="white"/>
</clipPath>
</defs>
</svg>
